HIERARCHY
ROOT Hips
{
	OFFSET 0.000000 105.246201 0.000000
	CHANNELS 6 Xposition Yposition Zposition Xrotation Yrotation Zrotation 
	JOINT Spine
	{
		OFFSET 0.000000 5.245300 0.258800
		CHANNELS 3 Xrotation Yrotation Zrotation
		JOINT Spine1
		{
			OFFSET -0.022433 6.371267 -0.595100
			CHANNELS 3 Xrotation Yrotation Zrotation
			JOINT Spine1_split
			{
				OFFSET -0.022433 6.371267 -0.595100
				CHANNELS 3 Xrotation Yrotation Zrotation
				JOINT Spine2
				{
					OFFSET -0.022433 6.371267 -0.595100
					CHANNELS 3 Xrotation Yrotation Zrotation
					JOINT Neck
					{
						OFFSET -0.040300 18.919495 -3.736100
						CHANNELS 3 Xrotation Yrotation Zrotation
						JOINT Head
						{
							OFFSET 0.000000 8.673004 3.319300
							CHANNELS 3 Xrotation Yrotation Zrotation
							JOINT HeadTop_End
							{
								OFFSET 0.000000 17.183899 4.948500
								CHANNELS 3 Xrotation Yrotation Zrotation
								End Site
								{
									OFFSET 0.000000 0.000000 0.000000
								}
							}
						}
					}
					JOINT RightShoulder
					{
						OFFSET -3.288350 7.512253 -1.059800
						CHANNELS 3 Xrotation Yrotation Zrotation
						JOINT RightShoulder_split
						{
							OFFSET -3.288350 7.512253 -1.059800
							CHANNELS 3 Xrotation Yrotation Zrotation
							JOINT RightArm
							{
								OFFSET -8.685001 -1.766190 -2.569600
								CHANNELS 3 Xrotation Yrotation Zrotation
								JOINT RightForeArm
								{
									OFFSET -24.573898 0.000000 0.000000
									CHANNELS 3 Xrotation Yrotation Zrotation
									JOINT RightHand
									{
										OFFSET -23.096600 0.000000 0.000000
										CHANNELS 3 Xrotation Yrotation Zrotation
										JOINT RightHandThumb1
										{
											OFFSET -3.660297 -1.518570 2.005537
											CHANNELS 3 Xrotation Yrotation Zrotation
											JOINT RightHandThumb2
											{
												OFFSET -2.341904 -1.352097 1.352098
												CHANNELS 3 Xrotation Yrotation Zrotation
												JOINT RightHandThumb3
												{
													OFFSET -3.105812 -1.793137 1.793141
													CHANNELS 3 Xrotation Yrotation Zrotation
													JOINT RightHandThumb4
													{
														OFFSET -2.532341 -1.462051 1.462046
														CHANNELS 3 Xrotation Yrotation Zrotation
														End Site
														{
															OFFSET 0.000000 0.000000 0.000000
														}
													}
												}
											}
										}
										JOINT RightHandIndex1
										{
											OFFSET -11.104504 -0.229523 2.326600
											CHANNELS 3 Xrotation Yrotation Zrotation
											JOINT RightHandIndex2
											{
												OFFSET -2.594704 0.000000 0.000000
												CHANNELS 3 Xrotation Yrotation Zrotation
												JOINT RightHandIndex3
												{
													OFFSET -1.969902 0.000000 0.000000
													CHANNELS 3 Xrotation Yrotation Zrotation
													JOINT RightHandIndex4
													{
														OFFSET -2.511757 0.000000 0.000000
														CHANNELS 3 Xrotation Yrotation Zrotation
														End Site
														{
															OFFSET 0.000000 0.000000 0.000000
														}
													}
												}
											}
										}
										JOINT RightHandMiddle1
										{
											OFFSET -11.447598 0.000000 0.000000
											CHANNELS 3 Xrotation Yrotation Zrotation
											JOINT RightHandMiddle2
											{
												OFFSET -2.882401 0.000000 0.000000
												CHANNELS 3 Xrotation Yrotation Zrotation
												JOINT RightHandMiddle3
												{
													OFFSET -2.055801 0.000000 0.000000
													CHANNELS 3 Xrotation Yrotation Zrotation
													JOINT RightHandMiddle4
													{
														OFFSET -2.746101 0.000000 0.000000
														CHANNELS 3 Xrotation Yrotation Zrotation
														End Site
														{
															OFFSET 0.000000 0.000000 0.000000
														}
													}
												}
											}
										}
										JOINT RightHandRing1
										{
											OFFSET -10.605602 0.268188 -2.247283
											CHANNELS 3 Xrotation Yrotation Zrotation
											JOINT RightHandRing2
											{
												OFFSET -3.015999 0.000000 0.000000
												CHANNELS 3 Xrotation Yrotation Zrotation
												JOINT RightHandRing3
												{
													OFFSET -2.233421 0.000000 0.000000
													CHANNELS 3 Xrotation Yrotation Zrotation
													JOINT RightHandRing4
													{
														OFFSET -2.304497 0.000000 0.000000
														CHANNELS 3 Xrotation Yrotation Zrotation
														End Site
														{
															OFFSET 0.000000 0.000000 0.000000
														}
													}
												}
											}
										}
										JOINT RightHandPinky1
										{
											OFFSET -9.628201 -0.341736 -4.027850
											CHANNELS 3 Xrotation Yrotation Zrotation
											JOINT RightHandPinky2
											{
												OFFSET -2.737701 0.000000 0.000000
												CHANNELS 3 Xrotation Yrotation Zrotation
												JOINT RightHandPinky3
												{
													OFFSET -1.441902 0.000000 0.000000
													CHANNELS 3 Xrotation Yrotation Zrotation
													JOINT RightHandPinky4
													{
														OFFSET -2.097298 0.000000 0.000000
														CHANNELS 3 Xrotation Yrotation Zrotation
														End Site
														{
															OFFSET 0.000000 0.000000 0.000000
														}
													}
												}
											}
										}
										JOINT sword_joint
										{
											OFFSET -9.605701 -1.943634 1.008051
											CHANNELS 3 Xrotation Yrotation Zrotation
											End Site
											{
												OFFSET 0.000000 0.000000 0.000000
											}
										}
									}
								}
							}
						}
					}
					JOINT LeftShoulder
					{
						OFFSET 3.355600 7.512253 -1.059800
						CHANNELS 3 Xrotation Yrotation Zrotation
						JOINT LeftShoulder_split
						{
							OFFSET 3.355600 7.512253 -1.059800
							CHANNELS 3 Xrotation Yrotation Zrotation
							JOINT LeftArm
							{
								OFFSET 8.685001 -1.766190 -2.569600
								CHANNELS 3 Xrotation Yrotation Zrotation
								JOINT LeftForeArm
								{
									OFFSET 24.573900 0.000000 0.000000
									CHANNELS 3 Xrotation Yrotation Zrotation
									JOINT LeftHand
									{
										OFFSET 23.096600 0.000000 0.000000
										CHANNELS 3 Xrotation Yrotation Zrotation
										JOINT LeftHandThumb1
										{
											OFFSET 3.660297 -1.518570 2.005537
											CHANNELS 3 Xrotation Yrotation Zrotation
											JOINT LeftHandThumb2
											{
												OFFSET 2.341904 -1.352097 1.352098
												CHANNELS 3 Xrotation Yrotation Zrotation
												JOINT LeftHandThumb3
												{
													OFFSET 3.105812 -1.793137 1.793141
													CHANNELS 3 Xrotation Yrotation Zrotation
													JOINT LeftHandThumb4
													{
														OFFSET 2.532341 -1.462051 1.462046
														CHANNELS 3 Xrotation Yrotation Zrotation
														End Site
														{
															OFFSET 0.000000 0.000000 0.000000
														}
													}
												}
											}
										}
										JOINT LeftHandIndex1
										{
											OFFSET 11.104496 -0.229523 2.326600
											CHANNELS 3 Xrotation Yrotation Zrotation
											JOINT LeftHandIndex2
											{
												OFFSET 2.594704 0.000000 0.000000
												CHANNELS 3 Xrotation Yrotation Zrotation
												JOINT LeftHandIndex3
												{
													OFFSET 1.969902 0.000000 0.000000
													CHANNELS 3 Xrotation Yrotation Zrotation
													JOINT LeftHandIndex4
													{
														OFFSET 2.511757 0.000000 0.000000
														CHANNELS 3 Xrotation Yrotation Zrotation
														End Site
														{
															OFFSET 0.000000 0.000000 0.000000
														}
													}
												}
											}
										}
										JOINT LeftHandMiddle1
										{
											OFFSET 11.447598 0.000000 0.000000
											CHANNELS 3 Xrotation Yrotation Zrotation
											JOINT LeftHandMiddle2
											{
												OFFSET 2.882401 0.000000 0.000000
												CHANNELS 3 Xrotation Yrotation Zrotation
												JOINT LeftHandMiddle3
												{
													OFFSET 2.055801 0.000000 0.000000
													CHANNELS 3 Xrotation Yrotation Zrotation
													JOINT LeftHandMiddle4
													{
														OFFSET 2.746101 0.000000 0.000000
														CHANNELS 3 Xrotation Yrotation Zrotation
														End Site
														{
															OFFSET 0.000000 0.000000 0.000000
														}
													}
												}
											}
										}
										JOINT LeftHandRing1
										{
											OFFSET 10.605602 0.268188 -2.247283
											CHANNELS 3 Xrotation Yrotation Zrotation
											JOINT LeftHandRing2
											{
												OFFSET 3.015999 0.000000 0.000000
												CHANNELS 3 Xrotation Yrotation Zrotation
												JOINT LeftHandRing3
												{
													OFFSET 2.233421 0.000000 0.000000
													CHANNELS 3 Xrotation Yrotation Zrotation
													JOINT LeftHandRing4
													{
														OFFSET 2.304497 0.000000 0.000000
														CHANNELS 3 Xrotation Yrotation Zrotation
														End Site
														{
															OFFSET 0.000000 0.000000 0.000000
														}
													}
												}
											}
										}
										JOINT LeftHandPinky1
										{
											OFFSET 9.628201 -0.341736 -4.027850
											CHANNELS 3 Xrotation Yrotation Zrotation
											JOINT LeftHandPinky2
											{
												OFFSET 2.737701 0.000000 0.000000
												CHANNELS 3 Xrotation Yrotation Zrotation
												JOINT LeftHandPinky3
												{
													OFFSET 1.441902 0.000000 0.000000
													CHANNELS 3 Xrotation Yrotation Zrotation
													JOINT LeftHandPinky4
													{
														OFFSET 2.097298 0.000000 0.000000
														CHANNELS 3 Xrotation Yrotation Zrotation
														End Site
														{
															OFFSET 0.000000 0.000000 0.000000
														}
													}
												}
											}
										}
									}
								}
							}
						}
					}
				}
			}
		}
	}
	JOINT LeftUpLeg
	{
		OFFSET 9.688800 -5.685204 -1.688600
		CHANNELS 3 Xrotation Yrotation Zrotation
		JOINT LeftLeg
		{
			OFFSET -0.656547 -43.138897 1.439100
			CHANNELS 3 Xrotation Yrotation Zrotation
			JOINT LeftFoot
			{
				OFFSET 0.656547 -40.701107 -4.209000
				CHANNELS 3 Xrotation Yrotation Zrotation
				JOINT LeftToeBase
				{
					OFFSET 0.862000 -15.666400 8.614100
					CHANNELS 3 Xrotation Yrotation Zrotation
					JOINT LeftToe_End
					{
						OFFSET 2.007600 -0.054600 13.323701
						CHANNELS 3 Xrotation Yrotation Zrotation
						End Site
						{
							OFFSET 0.000000 0.000000 0.000000
						}
					}
				}
			}
		}
	}
	JOINT RightUpLeg
	{
		OFFSET -9.688800 -5.685204 -1.688600
		CHANNELS 3 Xrotation Yrotation Zrotation
		JOINT RightLeg
		{
			OFFSET 0.656503 -43.138908 1.438900
			CHANNELS 3 Xrotation Yrotation Zrotation
			JOINT RightFoot
			{
				OFFSET -0.656503 -40.701092 -4.208900
				CHANNELS 3 Xrotation Yrotation Zrotation
				JOINT RightToeBase
				{
					OFFSET -0.862000 -15.666400 8.614100
					CHANNELS 3 Xrotation Yrotation Zrotation
					JOINT RightToe_End
					{
						OFFSET -2.007600 -0.054600 13.323700
						CHANNELS 3 Xrotation Yrotation Zrotation
						End Site
						{
							OFFSET 0.000000 0.000000 0.000000
						}
					}
				}
			}
		}
	}
}
MOTION
Frames: 5
Frame Time: 0.016667
0.225564 52.502136 -13.904057 17.445626 -3.835864 -3.180433 2.764124 1.041543 0.959521 3.415218 0.538783 0.655648 0.000000 0.000000 0.000000 3.411620 0.523145 0.694776 -20.897059 -1.690638 2.334698 6.187214 1.923108 -1.995894 -0.000001 -0.000000 -0.000000 -0.085982 7.256677 -5.190433 0.000000 0.000000 0.000000 -24.693077 72.710219 -1.002772 -0.000001 4.217152 -0.000000 -25.672581 8.408281 -3.492544 -13.495559 -11.552054 -5.371115 8.968858 -11.213671 -11.629544 2.472165 0.956657 -27.737649 -0.000000 0.000002 -0.000003 -0.010603 -1.311441 16.227819 0.609703 -2.305665 29.620577 0.154889 -1.192333 14.802845 0.000001 -0.000001 -0.000001 -2.448423 2.544414 23.622204 0.941996 -2.810302 37.055361 0.542269 -2.182892 27.898616 -0.000000 -0.000002 -0.000000 -4.299925 0.597461 42.996181 0.373265 -1.828549 23.072802 0.312282 -1.678250 21.079707 -0.000000 0.000001 -0.000001 -7.422600 3.766707 43.939669 0.623796 -2.330309 29.969627 0.125658 -1.075623 13.325257 -0.000000 0.000001 0.000000 -0.000002 -0.000000 0.000000 -1.942255 -5.909183 -0.524967 0.000000 0.000000 0.000000 -20.529841 -75.794828 12.394828 0.000001 -2.357874 -0.000001 -29.466823 -8.046431 -3.805498 0.699756 -6.020119 19.223940 15.904174 20.618330 2.526753 2.873119 -2.223112 3.895108 0.000004 0.000001 -0.000001 -0.882044 0.111739 -17.062263 0.750103 2.869992 -29.288883 0.234387 1.642115 -16.245337 -0.000000 0.000002 0.000005 0.507635 4.599300 -23.664963 1.327813 3.715351 -39.321081 0.454698 2.264789 -22.701537 -0.000001 0.000001 0.000000 0.512610 4.792964 -33.247565 0.966154 3.224551 -33.351298 0.523157 2.421848 -24.375939 -0.000000 0.000002 0.000000 1.271368 9.836645 -43.337277 0.569828 2.522204 -25.457522 0.089808 1.022968 -10.034768 0.000001 -0.000001 -0.000000 -103.564772 -9.591851 24.671799 122.065562 -5.555115 2.341316 -33.889387 -0.483979 -0.539341 -1.393571 -0.000001 -0.000004 -0.000000 -0.000001 0.000000 -103.570017 2.619604 -16.055623 119.155983 5.034804 -2.043931 -31.673691 0.949815 0.614775 -1.741365 0.000002 0.000002 -0.000000 -0.000000 0.000000 
0.267780 54.076408 -13.867874 17.678124 -3.759011 -3.303790 2.642613 0.993800 1.000091 3.260931 0.473886 0.681812 0.000000 0.000000 0.000000 3.257331 0.458150 0.717044 -20.926861 -1.736011 2.479662 5.823640 2.086417 -1.955643 -0.000001 -0.000000 0.000000 -0.021689 7.740350 -4.503535 0.000000 0.000000 0.000000 -25.113151 72.392485 0.647122 0.000000 4.437743 -0.000000 -24.651479 8.203448 -3.108624 -13.495559 -11.552053 -5.371115 9.072436 -11.484356 -11.514294 2.464220 1.144966 -27.959540 -0.000001 0.000002 -0.000001 -0.008554 -1.366350 16.459795 0.612829 -2.311130 29.697751 0.155713 -1.195407 14.842086 0.000001 -0.000002 -0.000006 -2.443068 2.474045 23.801222 0.943393 -2.812143 37.083843 0.544031 -2.186213 27.945012 0.000000 0.000001 -0.000000 -4.291342 0.552697 43.161717 0.370198 -1.821357 22.976594 0.311872 -1.677174 21.065536 0.000000 0.000003 -0.000000 -7.379686 3.688615 44.034079 0.618899 -2.321746 29.848292 0.125151 -1.073531 13.298880 -0.000000 0.000002 -0.000000 -0.000001 -0.000000 0.000000 -1.922809 -5.970637 -0.809152 0.000000 0.000000 0.000000 -22.239941 -75.372415 9.514234 0.000000 -2.683131 0.000001 -28.984393 -8.003336 -4.038322 0.699757 -6.020118 19.223941 15.883870 20.573657 2.550577 2.833625 -2.327270 4.000811 0.000001 0.000001 -0.000000 -0.839282 0.264314 -17.102051 0.751065 2.871699 -29.308017 0.239814 1.660586 -16.433369 -0.000000 0.000000 0.000001 0.538760 4.670179 -23.706729 1.327210 3.714633 -39.312107 0.455634 2.267036 -22.725117 0.000001 0.000002 0.000001 0.578024 4.897701 -33.444896 0.965685 3.223849 -33.342924 0.523438 2.422453 -24.382447 0.000000 -0.000001 -0.000000 1.348166 9.910009 -43.569374 0.572152 2.527113 -25.510854 0.089324 1.020208 -10.007074 0.000001 -0.000000 0.000001 -101.842178 -8.986715 24.396491 119.963626 -5.164572 2.197106 -33.894534 -0.412947 -0.757787 -1.396637 -0.000011 -0.000002 -0.000000 -0.000001 -0.000000 -101.706619 2.012692 -15.980609 117.003231 4.897870 -1.927662 -31.691306 0.879985 0.815996 -1.678814 -0.000006 -0.000002 -0.000000 -0.000001 -0.000000 
0.301394 55.784477 -13.797756 17.834249 -3.697909 -3.399425 2.522188 0.939598 1.023415 3.114239 0.407843 0.687839 0.000000 0.000000 0.000000 3.110689 0.392704 0.719295 -20.916805 -1.795924 2.654052 5.447358 2.252443 -1.983820 -0.000001 0.000000 -0.000000 0.065505 8.231659 -3.831665 0.000000 0.000000 0.000000 -25.674408 71.985502 2.583396 -0.000001 4.640074 0.000000 -23.503567 7.977162 -2.668160 -13.495560 -11.552053 -5.371116 9.248490 -11.926467 -11.323137 2.460946 1.218008 -28.068748 0.000002 -0.000000 -0.000001 -0.006937 -1.430473 16.768984 0.617525 -2.319340 29.814192 0.156495 -1.198360 14.879432 -0.000001 -0.000000 -0.000002 -2.442597 2.402856 24.021799 0.944718 -2.813882 37.110880 0.545566 -2.189082 27.985092 0.000000 0.000001 0.000000 -4.288775 0.504193 43.376978 0.367430 -1.814799 22.889127 0.311706 -1.676747 21.059860 -0.000000 -0.000000 -0.000001 -7.370356 3.630238 44.181379 0.614494 -2.314071 29.739535 0.124670 -1.071397 13.271959 -0.000000 0.000001 -0.000000 -0.000001 0.000000 -0.000000 -1.882009 -5.985308 -1.092047 0.000000 0.000000 0.000000 -24.247148 -74.899656 6.142115 0.000003 -3.044042 -0.000001 -28.487737 -7.985219 -4.289822 0.699754 -6.020120 19.223940 15.882319 20.571338 2.551951 2.786613 -2.452076 4.137896 -0.000002 -0.000001 0.000003 -0.790261 0.444107 -17.174144 0.752163 2.873682 -29.330021 0.245759 1.680573 -16.637241 -0.000001 0.000000 0.000003 0.578024 4.759251 -23.746008 1.327066 3.714429 -39.309771 0.456523 2.269169 -22.747726 0.000000 0.000001 -0.000001 0.656229 5.020651 -33.662847 0.965603 3.223722 -33.341445 0.523843 2.423335 -24.391772 -0.000000 -0.000001 -0.000000 1.447590 10.009779 -43.833009 0.575601 2.534281 -25.588527 0.088838 1.017425 -9.979816 0.000001 0.000002 0.000001 -99.862113 -8.373406 24.106005 117.662576 -4.761853 2.028443 -33.861681 -0.317239 -1.012946 -1.397759 -0.000005 -0.000001 -0.000000 -0.000001 0.000000 -99.624565 1.431231 -15.824133 114.654506 4.715295 -1.785919 -31.669565 0.802305 1.038474 -1.606885 0.000010 -0.000000 -0.000000 0.000001 -0.000000 
0.329180 57.604301 -13.689034 17.941268 -3.650479 -3.450241 2.407450 0.885550 1.027062 2.982459 0.351909 0.672396 0.000000 0.000000 0.000000 2.978966 0.338100 0.700662 -20.865989 -1.866333 2.844770 5.064825 2.405579 -2.096714 -0.000000 -0.000000 -0.000000 0.184835 8.713860 -3.237449 0.000000 0.000000 0.000000 -26.407941 71.451094 4.829368 0.000001 4.827967 0.000000 -22.268539 7.740869 -2.209051 -13.495562 -11.552051 -5.371116 9.500788 -12.538770 -11.052989 2.463407 1.148831 -28.033499 0.000000 -0.000001 -0.000003 -0.005501 -1.498959 17.129425 0.622655 -2.328285 29.940985 0.157172 -1.200892 14.911778 -0.000001 -0.000001 -0.000002 -2.445642 2.334234 24.263627 0.945737 -2.815231 37.131657 0.546791 -2.191412 28.017446 -0.000000 -0.000001 -0.000000 -4.291925 0.455219 43.625320 0.364914 -1.808808 22.809214 0.311802 -1.677002 21.063405 -0.000000 -0.000001 0.000000 -7.390336 3.590533 44.369773 0.610668 -2.307355 29.644408 0.124333 -1.070084 13.255439 -0.000000 0.000002 0.000000 -0.000001 -0.000000 0.000000 -1.806564 -5.998980 -1.383566 0.000000 0.000000 0.000000 -26.408431 -74.333919 2.439883 0.000001 -3.434066 -0.000000 -27.946323 -7.984468 -4.547396 0.699753 -6.020120 19.223943 15.899948 20.612100 2.530494 2.733675 -2.593158 4.301546 0.000000 -0.000001 -0.000002 -0.741961 0.626982 -17.279646 0.753187 2.875487 -29.350286 0.251322 1.699106 -16.826149 0.000000 0.000000 0.000002 0.619277 4.852353 -23.796512 1.327488 3.714956 -39.316106 0.457316 2.271029 -22.767471 -0.000000 0.000001 0.000000 0.736735 5.145422 -33.899728 0.966090 3.224465 -33.350130 0.524264 2.424273 -24.401930 -0.000000 -0.000001 -0.000000 1.558386 10.120283 -44.122496 0.579388 2.542143 -25.673826 0.088403 1.015016 -9.955815 -0.000000 -0.000000 -0.000000 -97.682490 -7.740381 23.797428 115.178190 -4.354412 1.837080 -33.776952 -0.202742 -1.297026 -1.393392 0.000004 -0.000002 -0.000000 -0.000001 0.000000 -97.386517 0.927336 -15.599648 112.125068 4.531798 -1.618641 -31.547855 0.700981 1.320844 -1.526565 -0.000009 -0.000002 -0.000000 -0.000000 -0.000001 
0.357183 59.514931 -13.537277 18.004461 -3.604973 -3.452940 2.300975 0.837200 1.012420 2.869565 0.314152 0.637368 0.000000 0.000000 0.000000 2.866145 0.302358 0.663291 -20.778747 -1.941921 3.035331 4.702684 2.528172 -2.281434 0.000000 0.000000 -0.000000 0.342135 9.180053 -2.754111 0.000000 0.000000 0.000000 -27.283747 70.752318 7.351469 0.000001 5.006943 -0.000002 -20.987124 7.506448 -1.773292 -13.495557 -11.552053 -5.371116 9.818111 -13.284703 -10.715523 2.471920 0.937339 -27.849343 -0.000000 -0.000002 -0.000000 -0.003514 -1.570792 17.510732 0.626695 -2.335280 30.040179 0.157716 -1.202962 14.937904 -0.000000 0.000001 -0.000001 -2.448791 2.268809 24.499311 0.946314 -2.815985 37.143477 0.547735 -2.193180 28.041951 -0.000000 -0.000001 -0.000000 -4.297399 0.408205 43.877695 0.362708 -1.803563 22.739382 0.312169 -1.677960 21.075908 0.000000 0.000001 0.000000 -7.428112 3.564581 44.574692 0.607391 -2.301626 29.563442 0.124344 -1.070033 13.254634 0.000000 0.000001 -0.000000 -0.000001 -0.000000 0.000000 -1.684315 -6.080180 -1.707585 0.000000 0.000000 0.000000 -28.508784 -73.621646 -1.346410 0.000002 -3.860692 0.000000 -27.298449 -7.982701 -4.792016 0.699752 -6.020118 19.223940 15.939262 20.700681 2.483461 2.676840 -2.746924 4.488728 0.000001 -0.000002 0.000000 -0.701668 0.786868 -17.412835 0.754089 2.877088 -29.368546 0.255583 1.713090 -16.968866 -0.000001 -0.000001 -0.000001 0.656216 4.935037 -23.873212 1.328486 3.716167 -39.331497 0.457940 2.272544 -22.783435 0.000000 -0.000001 0.000000 0.806910 5.253179 -34.151018 0.967137 3.226053 -33.368722 0.524660 2.425137 -24.411140 -0.000000 0.000000 0.000000 1.665905 10.222409 -44.429380 0.582510 2.548652 -25.744515 0.088089 1.013254 -9.938511 0.000000 -0.000001 0.000000 -95.344988 -7.073444 23.473023 112.528562 -3.952287 1.626146 -33.627600 -0.079412 -1.597456 -1.381369 -0.000001 -0.000000 0.000000 -0.000001 0.000001 -95.017002 0.507427 -15.329309 109.439609 4.340545 -1.432651 -31.346023 0.589611 1.629997 -1.441550 -0.000002 -0.000000 -0.000000 0.000000 -0.000000 
